<?xml version="1.0" encoding="UTF-8"?>
<svg version="1.1" xmlns="http://www.w3.org/2000/svg" width="200" height="200">
<path d="M0 0 C1.32 0 2.64 0 4 0 C5.4783226 2.95664519 5.06032783 5.74229737 5 9 C6.670625 9.12375 6.670625 9.12375 8.375 9.25 C23.09395741 11.17099268 32.61720509 21.30249293 42.5625 31.4375 C43.47580078 32.35982422 44.38910156 33.28214844 45.33007812 34.23242188 C47.55806717 36.48374065 49.78121159 38.7396193 52 41 C56.61610947 38.90031771 59.53536548 35.45734794 62.84570312 31.72460938 C64.24609375 30.23828125 64.24609375 30.23828125 67 28 C69.84765625 28.16796875 69.84765625 28.16796875 72 29 C71.69029106 34.38493928 68.64569893 36.82467404 64.9375 40.3125 C64.36966797 40.86228516 63.80183594 41.41207031 63.21679688 41.97851562 C61.82009075 43.32827365 60.41121163 44.66541525 59 46 C60.50137379 49.55176115 62.54745279 51.72959091 65.32421875 54.37890625 C66.18853516 55.21873047 67.05285156 56.05855469 67.94335938 56.92382812 C69.74898239 58.66005353 71.55877552 60.3919543 73.37304688 62.11914062 C81.97559433 70.5051917 89.72991384 79.49228605 90.125 91.9375 C90.08375 92.948125 90.0425 93.95875 90 95 C91.8871875 94.9071875 91.8871875 94.9071875 93.8125 94.8125 C97.72231986 94.79173989 97.72231986 94.79173989 100 96.5 C100.33 96.995 100.66 97.49 101 98 C100.01 99.98 100.01 99.98 99 102 C96.03 102 93.06 102 90 102 C90.061875 102.99 90.12375 103.98 90.1875 105 C90.10430059 118.83883517 78.77929137 129.83088794 69.64453125 138.88671875 C68.53544376 139.99850904 67.42694991 141.1108918 66.3190155 142.22383118 C64.00646324 144.5422439 61.68692889 146.85336365 59.36206055 149.15942383 C56.40791734 152.0908069 53.47206868 155.0397534 50.54129505 157.99447918 C48.25864247 160.29170657 45.96639847 162.57917422 43.67130089 164.86396217 C42.58610587 165.94652065 41.50378528 167.03196971 40.42463112 168.12055016 C32.06672389 176.53540161 23.40104656 184.90279414 11.3125 186.9375 C10.11238281 187.15277344 8.91226563 187.36804688 7.67578125 187.58984375 C6.79277344 187.72519531 5.90976563 187.86054688 5 188 C5.04125 189.27875 5.0825 190.5575 5.125 191.875 C5.1953125 194.0546875 5.1953125 194.0546875 5 196 C4.34 196.66 3.68 197.32 3 198 C-0.53571429 197.46428571 -0.53571429 197.46428571 -2 196 C-2.14115161 193.32941149 -2.04247107 190.67567762 -2 188 C-2.73863281 187.92523438 -3.47726563 187.85046875 -4.23828125 187.7734375 C-5.25277344 187.64195312 -6.26726562 187.51046875 -7.3125 187.375 C-8.29863281 187.25898438 -9.28476563 187.14296875 -10.30078125 187.0234375 C-22.02198578 183.78061217 -29.52819277 176.11346181 -37.6875 167.625 C-38.79242779 166.49492704 -39.89854096 165.36601182 -41.00585938 164.23828125 C-43.6843969 161.50531388 -46.34650764 158.75728163 -49 156 C-51.83299555 157.27857162 -53.77974632 158.56600459 -55.875 160.85546875 C-56.38546875 161.39494141 -56.8959375 161.93441406 -57.421875 162.49023438 C-58.47981618 163.62804487 -59.53186214 164.77136352 -60.578125 165.91992188 C-62.125 167.54296875 -62.125 167.54296875 -65 170 C-67.1796875 169.65356445 -67.1796875 169.65356445 -69 169 C-69.8125 167.3125 -69.8125 167.3125 -70 165 C-68.40103968 163.13454629 -66.8189629 161.63584583 -65 160 C-63.38912423 158.40257061 -61.78534366 156.79796485 -60.1875 155.1875 C-58.79166667 153.79166667 -57.39583333 152.39583333 -56 151 C-57.43301374 147.71990961 -59.19468883 145.57023114 -61.73828125 143.06640625 C-62.47626953 142.33486328 -63.21425781 141.60332031 -63.97460938 140.84960938 C-64.74611328 140.09486328 -65.51761719 139.34011719 -66.3125 138.5625 C-67.07240234 137.81162109 -67.83230469 137.06074219 -68.61523438 136.28710938 C-72.57790795 132.37232682 -72.57790795 132.37232682 -76.56542969 128.48291016 C-83.20593715 121.99298669 -87.69374985 113.81875279 -88.1875 104.4375 C-88.125625 103.633125 -88.06375 102.82875 -88 102 C-90.64 102 -93.28 102 -96 102 C-96.625 99.625 -96.625 99.625 -97 97 C-95 95 -95 95 -91.375 94.875 C-90.26125 94.91625 -89.1475 94.9575 -88 95 C-87.9175 93.700625 -87.835 92.40125 -87.75 91.0625 C-86.36219615 78.63090499 -78.16878456 69.83206194 -70 61 C-70.99 60.195625 -71.98 59.39125 -73 58.5625 C-75.59938636 55.95076501 -76.50621412 54.19448129 -76.6875 50.5 C-76.44943583 47.29695481 -75.82039743 45.11095111 -73.9375 42.5 C-70.43609467 39.52008057 -68.56461267 39 -64 39 C-60.54604734 39.94198709 -58.23571966 41.17593306 -56 44 C-56 44.66 -56 45.32 -56 46 C-54.68 44.68 -53.36 43.36 -52 42 C-52.78375 41.484375 -53.5675 40.96875 -54.375 40.4375 C-57.68070588 37.36791597 -58.3961425 35.45344903 -59 31 C-57.92610293 27.4203431 -56.77286754 24.92149591 -54.375 22.0625 C-50.60993687 20.37812965 -47.03964624 20.20932191 -43 21 C-39.9375 23.375 -39.9375 23.375 -38 26 C-38 26.66 -38 27.32 -38 28 C-37.5153125 27.56429688 -37.030625 27.12859375 -36.53125 26.6796875 C-27.26025015 18.44276071 -17.1112998 9.43026808 -4.0625 8.875 C-3.381875 8.91625 -2.70125 8.9575 -2 9 C-2.04125 7.88625 -2.0825 6.7725 -2.125 5.625 C-2 2 -2 2 0 0 Z " fill="#020202" transform="translate(98,1)"/>
<path d="M0 0 C0 15.51 0 31.02 0 47 C-1.98 47.99 -3.96 48.98 -6 50 C-8.78456541 54.7607086 -9.35331694 57.69950866 -8 63 C-7.66666667 65 -7.33333333 67 -7 69 C-16.78876074 68.38820245 -24.6535474 57.58676354 -31 51.125 C-31.97478738 50.14015657 -32.95004471 49.15577806 -33.92578125 48.171875 C-36.2884991 45.78576391 -38.64639107 43.39509065 -41 41 C-36.57040851 35.69945301 -31.90178962 30.7550276 -27.01171875 25.87890625 C-25.8960125 24.76176491 -25.8960125 24.76176491 -24.75776672 23.62205505 C-23.19838174 22.06199381 -21.63775022 20.50317764 -20.07592773 18.94555664 C-17.67379699 16.5488278 -15.27710749 14.14674938 -12.88085938 11.74414062 C-11.36230011 10.22624135 -9.84343111 8.70865186 -8.32421875 7.19140625 C-7.60449387 6.46965714 -6.88476898 5.74790802 -6.14323425 5.00428772 C-5.48197037 4.34617599 -4.82070648 3.68806427 -4.1394043 3.01000977 C-3.55571579 2.42711685 -2.97202728 1.84422394 -2.37065125 1.2436676 C-1 0 -1 0 0 0 Z " fill="#D9DDDF" transform="translate(97,106)"/>
<path d="M0 0 C4.37304234 2.127426 7.58441046 5.97840909 10.98583984 9.3815918 C12.38914997 10.77843616 13.81672558 12.15076651 15.24462891 13.52246094 C21.3444988 19.58345064 26.28986686 25.73610656 29.04150391 33.99316406 C29.04150391 35.97316406 29.04150391 37.95316406 29.04150391 39.99316406 C20.79150391 39.99316406 12.54150391 39.99316406 4.04150391 39.99316406 C4.04150391 36.69316406 4.04150391 33.39316406 4.04150391 29.99316406 C0.023457 29.1521775 -2.97653152 28.93911462 -6.95849609 29.99316406 C-6.95849609 33.29316406 -6.95849609 36.59316406 -6.95849609 39.99316406 C-18.17849609 39.99316406 -29.39849609 39.99316406 -40.95849609 39.99316406 C-34.95849609 32.99316406 -34.95849609 32.99316406 -31.95849609 31.99316406 C-30.34974609 32.51910156 -30.34974609 32.51910156 -28.70849609 33.05566406 C-24.12827702 34.20071883 -22.2925961 33.58528243 -17.95849609 31.99316406 C-17.73429729 30.43286155 -17.52985851 28.86971356 -17.33349609 27.30566406 C-17.21748047 26.43554688 -17.10146484 25.56542969 -16.98193359 24.66894531 C-16.95538417 21.63788563 -17.77402357 19.75221695 -18.95849609 16.99316406 C-16.22888312 14.11887982 -13.47177236 11.27257014 -10.70849609 8.43066406 C-9.54253906 7.20186523 -9.54253906 7.20186523 -8.35302734 5.94824219 C-7.59892578 5.17802734 -6.84482422 4.4078125 -6.06787109 3.61425781 C-5.37661133 2.89681396 -4.68535156 2.17937012 -3.97314453 1.44018555 C-1.95849609 -0.00683594 -1.95849609 -0.00683594 0 0 Z " fill="#D9DDDF" transform="translate(146.95849609375,57.0068359375)"/>
<path d="M0 0 C0.66 0 1.32 0 2 0 C3.46412659 1.48413086 3.46412659 1.48413086 5.15844727 3.52734375 C8.74496303 7.74272851 12.53717439 11.66640875 16.46484375 15.5625 C17.14301651 16.23925781 17.82118927 16.91601562 18.51991272 17.61328125 C20.65674305 19.74457675 22.79704823 21.87234218 24.9375 24 C26.39932123 25.45679779 27.86091187 26.91382701 29.32226562 28.37109375 C32.878854 31.91673973 36.43856016 35.45922739 40 39 C35.05765427 44.8439563 29.88111048 50.36862384 24.5 55.8125 C23.67113281 56.67037109 22.84226562 57.52824219 21.98828125 58.41210938 C21.17746094 59.23130859 20.36664063 60.05050781 19.53125 60.89453125 C18.80486328 61.63550049 18.07847656 62.37646973 17.33007812 63.13989258 C14.66674585 65.26603765 12.26668363 66.10612404 9 67 C9.350625 65.989375 9.70125 64.97875 10.0625 63.9375 C11.65132704 58.37097123 10.56007987 54.12015973 8 49 C5.36 47.68 2.72 46.36 0 45 C0 30.15 0 15.3 0 0 Z " fill="#D9DCDE" transform="translate(102,107)"/>
<path d="M0 0 C0 23.43 0 46.86 0 71 C-7.875 64.25 -7.875 64.25 -10.30859375 61.7890625 C-10.82744141 61.26699219 -11.34628906 60.74492188 -11.88085938 60.20703125 C-12.39455078 59.68496094 -12.90824219 59.16289063 -13.4375 58.625 C-13.97826172 58.07972656 -14.51902344 57.53445312 -15.07617188 56.97265625 C-16.38646723 55.65076536 -17.69358284 54.32572382 -19 53 C-18.69964844 52.27554688 -18.39929688 51.55109375 -18.08984375 50.8046875 C-15.11257246 43.5726211 -15.11257246 43.5726211 -16 36 C-16.144375 34.783125 -16.28875 33.56625 -16.4375 32.3125 C-17.63396219 28.94630644 -17.63396219 28.94630644 -20.0390625 27.85546875 C-26.00202532 25.83396897 -30.85233896 25.90928594 -37 27 C-14.21227621 0 -14.21227621 0 0 0 Z " fill="#DCDFE1" transform="translate(97,22)"/>
<path d="M0 0 C10.82041032 1.80340172 18.54678518 6.98779407 26 15 C28.14903826 18.53442456 28.52791742 21.90861761 29 26 C29.93972656 26.03867187 29.93972656 26.03867187 30.8984375 26.078125 C31.71570313 26.13484375 32.53296875 26.1915625 33.375 26.25 C34.59316406 26.31960937 34.59316406 26.31960937 35.8359375 26.390625 C36.55007812 26.59171875 37.26421875 26.7928125 38 27 C39.13525391 29.03808594 39.13525391 29.03808594 40 31 C39.49025635 31.50450684 38.9805127 32.00901367 38.45532227 32.52880859 C36.15511905 34.80827034 33.85877123 37.09157761 31.5625 39.375 C30.76005859 40.1690625 29.95761719 40.963125 29.13085938 41.78125 C28.36708984 42.54179688 27.60332031 43.30234375 26.81640625 44.0859375 C26.10943604 44.7876709 25.40246582 45.4894043 24.67407227 46.21240234 C22.92780016 47.90693091 22.92780016 47.90693091 22 50 C19.71484375 50.6328125 19.71484375 50.6328125 16.9375 51.125 C15.55884766 51.37636719 15.55884766 51.37636719 14.15234375 51.6328125 C13.44207031 51.75398438 12.73179688 51.87515625 12 52 C11.86464844 52.6290625 11.72929688 53.258125 11.58984375 53.90625 C9.90218227 60.6164729 7.29322018 65.43380043 2 70 C1.34 70 0.68 70 0 70 C0 59.77 0 49.54 0 39 C2.64 39.33 5.28 39.66 8 40 C11.68824254 38.77058582 13.41691363 37.96336009 15.4375 34.625 C16.29435603 30.62633852 15.26989556 27.80968668 14 24 C9.0451577 21.38494434 5.3274731 21.66813173 0 23 C0 15.41 0 7.82 0 0 Z " fill="#D8DBDD" transform="translate(102,22)"/>
<path d="M0 0 C22.77 0 45.54 0 69 0 C67.87481259 9.00149925 67.87481259 9.00149925 65.125 12.75 C64.35542969 13.82507813 64.35542969 13.82507813 63.5703125 14.921875 C63.05210937 15.60765625 62.53390625 16.2934375 62 17 C61.22269531 18.12148437 61.22269531 18.12148437 60.4296875 19.265625 C59.95789063 19.83796875 59.48609375 20.4103125 59 21 C58.34 21 57.68 21 57 21 C56.4740625 19.6078125 56.4740625 19.6078125 55.9375 18.1875 C53.44367756 14.08475985 51.57774829 13.29702868 47 12 C42.24258415 12.16404882 38.74377655 13.00497876 35 16 C32.91305106 19.67700527 32.58209509 22.82095095 33 27 C34.32816161 31.12429131 35.14217032 33.38156465 38.6875 35.9375 C39.450625 36.288125 40.21375 36.63875 41 37 C40.505 37.99 40.505 37.99 40 39 C36.82470424 37.59634887 34.68738332 35.93583059 32.24121094 33.48413086 C31.52076599 32.76676254 30.80032104 32.04939423 30.05804443 31.31028748 C29.29123352 30.53629105 28.52442261 29.76229462 27.734375 28.96484375 C26.94097717 28.1709877 26.14757935 27.37713165 25.33013916 26.55921936 C23.65684742 24.88290936 21.98598399 23.20417241 20.31738281 21.52319336 C17.75119144 18.93869994 15.17704232 16.36234353 12.6015625 13.78710938 C10.97869294 12.15932633 9.35628103 10.53108685 7.734375 8.90234375 C6.95946716 8.12632309 6.18455933 7.35030243 5.38616943 6.55076599 C4.67833313 5.83654984 3.97049683 5.12233368 3.24121094 4.38647461 C2.61373962 3.7551915 1.98626831 3.12390839 1.33978271 2.47349548 C0 1 0 1 0 0 Z " fill="#DBDFE1" transform="translate(107,103)"/>
<path d="M0 0 C4.29 0 8.58 0 13 0 C16.875 7.625 16.875 7.625 18 11 C22.51210904 13.83958098 27.43730323 16.24993334 32.84375 15.72265625 C35.33728546 14.96783603 37.63080666 14.07989229 40 13 C40.87269531 12.73445313 41.74539062 12.46890625 42.64453125 12.1953125 C45.7580695 10.61530801 46.14448845 9.19313782 47.25 5.9375 C48.96688742 1.03311258 48.96688742 1.03311258 50 0 C51.34267413 -0.08631874 52.68974322 -0.10706473 54.03515625 -0.09765625 C54.84404297 -0.09443359 55.65292969 -0.09121094 56.48632812 -0.08789062 C57.33646484 -0.07951172 58.18660156 -0.07113281 59.0625 -0.0625 C59.91650391 -0.05798828 60.77050781 -0.05347656 61.65039062 -0.04882812 C63.76695663 -0.03700373 65.88348685 -0.01906769 68 0 C63.69372744 5.14829744 59.17688069 9.95752072 54.4140625 14.68359375 C53.36138687 15.73414696 53.36138687 15.73414696 52.28744507 16.80592346 C50.06898864 19.01883027 47.84706185 21.22821416 45.625 23.4375 C44.11044534 24.94703314 42.59612015 26.45679657 41.08203125 27.96679688 C37.39066901 31.64719702 33.69645931 35.32471957 30 39 C24.73913043 36.43478261 24.73913043 36.43478261 23 34 C22.95834237 32.00043389 22.95834237 29.99956611 23 28 C22.34 27.01 21.68 26.02 21 25 C19.80375 24.938125 18.6075 24.87625 17.375 24.8125 C12.45223917 24.34792003 10.07771794 21.95249289 6.83203125 18.38671875 C2.18304546 12.33015091 0 7.69802388 0 0 Z " fill="#DBDFE1" transform="translate(23,103)"/>
<path d="M0 0 C-0.0825 1.134375 -0.165 2.26875 -0.25 3.4375 C-0.21375173 8.53038167 0.99441033 12.84620753 4 17 C7.82938304 19.67717929 11.04329616 20.13960485 15.640625 19.46875 C19.95176847 19.41709251 21.85981603 21.23090569 24.9375 24.12109375 C26.64584634 25.87314197 28.33288034 27.64617864 30 29.4375 C30.87011719 30.33533203 31.74023438 31.23316406 32.63671875 32.15820312 C39 38.77621541 39 38.77621541 39 40 C32.4 40 25.8 40 19 40 C18.443125 38.453125 17.88625 36.90625 17.3125 35.3125 C14.96765414 30.67579915 12.66226878 28.71527235 7.9375 26.5625 C1.60894342 24.55115398 -2.55621033 25.08281736 -8.453125 28.046875 C-12.75142601 31.34311811 -14.12555416 34.97916294 -16 40 C-20.95 40 -25.9 40 -31 40 C-29.24505283 27.71536979 -23.57585012 20.81353511 -14.90600586 12.41894531 C-13.29237869 10.85550449 -11.69893858 9.27341535 -10.10742188 7.6875 C-2.31223902 0 -2.31223902 0 0 0 Z " fill="#DADEE0" transform="translate(53,57)"/>
<path d="M0 0 C1.8125 1.1875 1.8125 1.1875 3 3 C3.39831203 6.18649624 3.60548083 8.1220528 1.75 10.8125 C-0.31249474 12.21205 -1.49496229 12.85264484 -4 13 C-6.6875 11.9375 -6.6875 11.9375 -9 10 C-10.05505768 6.38265938 -10.1966746 4.59002381 -9 1 C-5.81019285 -1.27843368 -3.66587031 -1.22195677 0 0 Z " fill="#030303" transform="translate(115,131)"/>
<path d="M0 0 C2.78637633 4.1795645 1.79562512 6.14668677 1 11 C-6.625 12.25 -6.625 12.25 -10 10 C-10.88757579 6.85934722 -11.26479783 4.81645997 -10.25 1.6875 C-7.52710305 -1.98841089 -3.94624983 -1.00755315 0 0 Z " fill="#020202" transform="translate(91,140)"/>
<path d="M0 0 C-0.33 2.31 -0.66 4.62 -1 7 C-1.66 6.01 -2.32 5.02 -3 4 C-9.93 10.93 -16.86 17.86 -24 25 C-24 22 -24 22 -22.01220703 19.63989258 C-21.10325684 18.73392334 -20.19430664 17.8279541 -19.2578125 16.89453125 C-18.77424286 16.4104631 -18.29067322 15.92639496 -17.79244995 15.42765808 C-16.76870408 14.40625264 -15.74126366 13.38853888 -14.71044922 12.37426758 C-13.12937837 10.81681297 -11.5620688 9.24644492 -9.99609375 7.67382812 C-2.27903345 0 -2.27903345 0 0 0 Z " fill="#CED2D4" transform="translate(53,57)"/>
<path d="M0 0 C0 3 0 3 -1.19335938 4.53393555 C-2.01030273 5.32731323 -2.01030273 5.32731323 -2.84375 6.13671875 C-3.72353516 7.00200195 -3.72353516 7.00200195 -4.62109375 7.88476562 C-5.24113281 8.47966797 -5.86117187 9.07457031 -6.5 9.6875 C-7.12003906 10.29400391 -7.74007812 10.90050781 -8.37890625 11.52539062 C-9.91264707 13.02373743 -11.45548198 14.51276493 -13 16 C-12.34 16.66 -11.68 17.32 -11 18 C-15.625 20.125 -15.625 20.125 -19 19 C-12.73 12.73 -6.46 6.46 0 0 Z " fill="#CED2D4" transform="translate(79,29)"/>
<path d="M0 0 C2.31 1.65 4.62 3.3 7 5 C6.67 5.66 6.34 6.32 6 7 C2.63279613 5.60667426 1.0140476 4.0210714 -1 1 C-0.67 0.67 -0.34 0.34 0 0 Z " fill="#C8CBCD" transform="translate(141,135)"/>
</svg>
